<svg width="24" height="24" viewBox="0 0 24 24" fill="none" xmlns="http://www.w3.org/2000/svg">
<path fill-rule="evenodd" clip-rule="evenodd" d="M1 12C1 5.92487 5.92487 1 12 1C18.0751 1 23 5.92487 23 12C23 18.0751 18.0751 23 12 23C5.92487 23 1 18.0751 1 12Z" fill="#134090"/>
<path fill-rule="evenodd" clip-rule="evenodd" d="M17.3106 8.04293C17.7012 8.43345 17.7012 9.06662 17.3106 9.45714L11.1035 15.9571C10.713 16.3477 10.0798 16.3477 9.68932 15.9571L6.68932 12.9571C6.29879 12.5666 6.29879 11.9335 6.68932 11.5429C7.07984 11.1524 7.71301 11.1524 8.10353 11.5429L10.3964 13.8358L15.8964 8.04293C16.2869 7.65241 16.9201 7.65241 17.3106 8.04293Z" fill="white"/>
</svg>
